# ProBuilder 5.0.6
# https://unity3d.com/unity/features/worldbuilding/probuilder
# 10/6/2022 12:34:14 PM

mtllib ./Belt.mtl
o Belt

g Belt
v -0.1135721 -0.01418051 -0.08677319
v -0.1161094 -0.01418051 -0.1334572
v -0.1135721 0.01418051 -0.08677319
v -0.1161094 0.01418051 -0.1334572
v -0.1061094 -0.01418051 -0.1334572
v -0.103632 -0.01418051 -0.08786575
v -0.1061094 0.01418051 -0.1334572
v -0.103632 0.01418051 -0.08786575
v -0.1060712 -0.01418051 -0.04212951
v -0.1060712 0.01418051 -0.04212951
v -0.09632613 -0.01418051 -0.04437311
v -0.09632613 0.01418051 -0.04437311
v -0.09393445 -0.01418051 -0.001477286
v -0.09393445 0.01418051 -0.001477286
v -0.08457331 -0.01418051 -0.004994243
v -0.08457331 0.01418051 -0.004994243
v -0.07769233 -0.01418051 0.03340679
v -0.07769233 0.01418051 0.03340679
v -0.06902066 -0.01418051 0.02842663
v -0.06902066 0.01418051 0.02842663
v -0.05805468 -0.01418051 0.0609981
v -0.05805468 0.01418051 0.0609981
v -0.05060565 -0.01418051 0.05432637
v -0.05060565 0.01418051 0.05432637
v -0.03587976 -0.01418051 0.08009078
v -0.03587976 0.01418051 0.08009078
v -0.03055943 -0.01418051 0.07162355
v -0.03055943 0.01418051 0.07162355
v -0.01213673 -0.01418051 0.0898504
v -0.01213673 0.01418051 0.0898504
v -0.0101449 -0.01418051 0.08005077
v -0.0101449 0.01418051 0.08005077
v 0.01213674 -0.01418051 0.0898504
v 0.01213674 0.01418051 0.0898504
v 0.01014491 -0.01418051 0.08005077
v 0.01014491 0.01418051 0.08005077
v 0.03587976 -0.01418051 0.08009078
v 0.03587976 0.01418051 0.08009078
v 0.03055943 -0.01418051 0.07162355
v 0.03055943 0.01418051 0.07162355
v 0.05805469 -0.01418051 0.06099808
v 0.05805469 0.01418051 0.06099808
v 0.05060566 -0.01418051 0.05432636
v 0.05060566 0.01418051 0.05432636
v 0.07769234 -0.01418051 0.03340678
v 0.07769234 0.01418051 0.03340678
v 0.06902067 -0.01418051 0.02842662
v 0.06902067 0.01418051 0.02842662
v 0.09393446 -0.01418051 -0.001477301
v 0.09393446 0.01418051 -0.001477301
v 0.08457332 -0.01418051 -0.004994258
v 0.08457332 0.01418051 -0.004994258
v 0.1060712 -0.01418051 -0.04212952
v 0.1060712 0.01418051 -0.04212952
v 0.09632613 -0.01418051 -0.04437312
v 0.09632613 0.01418051 -0.04437312
v 0.1135721 -0.01418051 -0.08677321
v 0.1135721 0.01418051 -0.08677321
v 0.103632 -0.01418051 -0.08786577
v 0.103632 0.01418051 -0.08786577
v 0.1161094 -0.01418051 -0.1334572
v 0.1161094 0.01418051 -0.1334572
v 0.1061094 -0.01418051 -0.1334572
v 0.1061094 0.01418051 -0.1334572
v 0.1135721 -0.01418051 -0.1801412
v 0.1135721 0.01418051 -0.1801412
v 0.103632 -0.01418051 -0.1790486
v 0.103632 0.01418051 -0.1790486
v 0.1060712 -0.01418051 -0.2247848
v 0.1060712 0.01418051 -0.2247848
v 0.09632613 -0.01418051 -0.2225412
v 0.09632613 0.01418051 -0.2225412
v 0.09393446 -0.01418051 -0.2654371
v 0.09393446 0.01418051 -0.2654371
v 0.08457332 -0.01418051 -0.2619201
v 0.08457332 0.01418051 -0.2619201
v 0.07769234 -0.01418051 -0.3003211
v 0.07769234 0.01418051 -0.3003211
v 0.06902067 -0.01418051 -0.295341
v 0.06902067 0.01418051 -0.295341
v 0.05805467 -0.01418051 -0.3279124
v 0.05805467 0.01418051 -0.3279124
v 0.05060565 -0.01418051 -0.3212407
v 0.05060565 0.01418051 -0.3212407
v 0.03587978 -0.01418051 -0.3470051
v 0.03587978 0.01418051 -0.3470051
v 0.03055944 -0.01418051 -0.3385379
v 0.03055944 0.01418051 -0.3385379
v 0.01213672 -0.01418051 -0.3567648
v 0.01213672 0.01418051 -0.3567648
v 0.01014489 -0.01418051 -0.3469651
v 0.01014489 0.01418051 -0.3469651
v -0.01213672 -0.01418051 -0.3567648
v -0.01213672 0.01418051 -0.3567648
v -0.0101449 -0.01418051 -0.3469651
v -0.0101449 0.01418051 -0.3469651
v -0.03587978 -0.01418051 -0.3470051
v -0.03587978 0.01418051 -0.3470051
v -0.03055944 -0.01418051 -0.3385379
v -0.03055944 0.01418051 -0.3385379
v -0.05805467 -0.01418051 -0.3279124
v -0.05805467 0.01418051 -0.3279124
v -0.05060565 -0.01418051 -0.3212407
v -0.05060565 0.01418051 -0.3212407
v -0.07769235 -0.01418051 -0.3003211
v -0.07769235 0.01418051 -0.3003211
v -0.06902067 -0.01418051 -0.295341
v -0.06902067 0.01418051 -0.295341
v -0.09393445 -0.01418051 -0.2654371
v -0.09393445 0.01418051 -0.2654371
v -0.08457331 -0.01418051 -0.2619201
v -0.08457331 0.01418051 -0.2619201
v -0.1060712 -0.01418051 -0.2247848
v -0.1060712 0.01418051 -0.2247848
v -0.09632614 -0.01418051 -0.2225412
v -0.09632614 0.01418051 -0.2225412
v -0.1135721 -0.01418051 -0.1801412
v -0.1135721 0.01418051 -0.1801412
v -0.103632 -0.01418051 -0.1790486
v -0.103632 0.01418051 -0.1790486
v 0.1133747 -0.01203772 -0.1759615
v 0.1133747 -0.02487537 -0.1374373
v 0.1175222 -0.01203772 -0.1759615
v 0.1175222 -0.02487537 -0.1374373
v 0.1133747 -0.01487538 -0.1374373
v 0.1133747 -0.004965627 -0.1688914
v 0.1175222 -0.01487538 -0.1374373
v 0.1175222 -0.004965628 -0.1688914
v 0.1133747 0.01363758 -0.1759615
v 0.1175222 0.01363758 -0.1759615
v 0.1133747 0.006565487 -0.1688914
v 0.1175222 0.006565487 -0.1688914
v 0.1133747 0.02647523 -0.1374373
v 0.1175222 0.02647523 -0.1374373
v 0.1133747 0.01647524 -0.1374373
v 0.1175222 0.01647524 -0.1374373
v 0.1133747 0.01363758 -0.09891319
v 0.1175222 0.01363758 -0.09891319
v 0.1133747 0.006565488 -0.1059833
v 0.1175222 0.006565487 -0.1059833
v 0.1133747 -0.01203772 -0.09891319
v 0.1175222 -0.01203772 -0.09891319
v 0.1133747 -0.004965627 -0.1059833
v 0.1175222 -0.004965627 -0.1059833

vt -0.09280884 -0.01418051
vt -0.1395617 -0.01418051
vt -0.09280884 0.01418051
vt -0.1395617 0.01418051
vt 0.139018 -0.01418051
vt 0.09335929 -0.01418051
vt 0.139018 0.01418051
vt 0.09335929 0.01418051
vt -0.05912262 -0.01418051
vt -0.1043921 -0.01418051
vt -0.05912262 0.01418051
vt -0.1043921 0.01418051
vt 0.1038192 -0.01418051
vt 0.05971721 -0.01418051
vt 0.1038192 0.01418051
vt 0.05971721 0.01418051
vt -0.02828768 -0.01418051
vt -0.07071295 -0.01418051
vt -0.02828768 0.01418051
vt -0.07071295 0.01418051
vt 0.07006801 -0.01418051
vt 0.02897271 -0.01418051
vt 0.07006801 0.01418051
vt 0.02897271 0.01418051
vt -0.002508404 -0.01418051
vt -0.04098834 -0.01418051
vt -0.002508404 0.01418051
vt -0.04098834 0.01418051
vt 0.04021034 -0.01418051
vt 0.003347894 -0.01418051
vt 0.04021034 0.01418051
vt 0.003347894 0.01418051
vt 0.01603251 -0.01418051
vt -0.01783366 -0.01418051
vt 0.01603251 0.01418051
vt -0.01783366 0.01418051
vt 0.01682785 -0.01418051
vt -0.01495121 -0.01418051
vt 0.01682785 0.01418051
vt -0.01495121 0.01418051
vt 0.02506731 -0.01418051
vt -0.00419456 -0.01418051
vt 0.02506731 0.01418051
vt -0.00419456 0.01418051
vt 0.002823542 -0.01418051
vt -0.02365369 -0.01418051
vt 0.002823542 0.01418051
vt -0.02365369 0.01418051
vt 0.02293448 -0.01418051
vt 0.02293448 0.01418051
vt 0.000917742 -0.01418051
vt -0.02116779 -0.01418051
vt 0.000917742 0.01418051
vt -0.02116779 0.01418051
vt 0.01213674 -0.01418051
vt -0.01213673 -0.01418051
vt 0.01213674 0.01418051
vt -0.01213673 0.01418051
vt 0.0101449 -0.01418051
vt -0.01014491 -0.01418051
vt 0.0101449 0.01418051
vt -0.01014491 0.01418051
vt -0.02293449 -0.01418051
vt -0.02293449 0.01418051
vt 0.02116779 -0.01418051
vt -0.0009177316 -0.01418051
vt 0.02116779 0.01418051
vt -0.0009177316 0.01418051
vt 0.004194564 -0.01418051
vt -0.02506733 -0.01418051
vt 0.004194564 0.01418051
vt -0.02506733 0.01418051
vt 0.0236537 -0.01418051
vt 0.0236537 0.01418051
vt 0.01783369 -0.01418051
vt -0.01603248 -0.01418051
vt 0.01783369 0.01418051
vt -0.01603248 0.01418051
vt 0.0149512 -0.01418051
vt -0.01682787 -0.01418051
vt 0.0149512 0.01418051
vt -0.01682787 0.01418051
vt 0.04098834 -0.01418051
vt 0.04098834 0.01418051
vt -0.00334791 -0.01418051
vt -0.04021036 -0.01418051
vt -0.00334791 0.01418051
vt -0.04021036 0.01418051
vt 0.07071295 -0.01418051
vt 0.02828769 -0.01418051
vt 0.07071295 0.01418051
vt 0.02828769 0.01418051
vt -0.02897271 -0.01418051
vt -0.07006801 -0.01418051
vt -0.02897271 0.01418051
vt -0.07006801 0.01418051
vt 0.1043921 -0.01418051
vt 0.05912263 -0.01418051
vt 0.1043921 0.01418051
vt 0.05912263 0.01418051
vt -0.05971722 -0.01418051
vt -0.1038192 -0.01418051
vt -0.05971722 0.01418051
vt -0.1038192 0.01418051
vt 0.1395617 -0.01418051
vt 0.09280886 -0.01418051
vt 0.1395617 0.01418051
vt 0.09280886 0.01418051
vt -0.09335931 -0.01418051
vt -0.139018 -0.01418051
vt -0.09335931 0.01418051
vt -0.139018 0.01418051
vt 0.1737122 -0.01418051
vt 0.1269593 -0.01418051
vt 0.1737122 0.01418051
vt 0.1269593 0.01418051
vt -0.1275032 -0.01418051
vt -0.1731619 -0.01418051
vt -0.1275032 0.01418051
vt -0.1731619 0.01418051
vt 0.2041022 -0.01418051
vt 0.1588328 -0.01418051
vt 0.2041022 0.01418051
vt 0.1588328 0.01418051
vt -0.1594073 -0.01418051
vt -0.2035093 -0.01418051
vt -0.1594073 0.01418051
vt -0.2035093 0.01418051
vt 0.2274718 -0.01418051
vt 0.1850465 -0.01418051
vt 0.2274718 0.01418051
vt 0.1850465 0.01418051
vt -0.1856981 -0.01418051
vt -0.2267934 -0.01418051
vt -0.1856981 0.01418051
vt -0.2267934 0.01418051
vt 0.2394634 -0.01418051
vt 0.2009835 -0.01418051
vt 0.2394634 0.01418051
vt 0.2009835 0.01418051
vt -0.2017842 -0.01418051
vt -0.2386466 -0.01418051
vt -0.2017842 0.01418051
vt -0.2386466 0.01418051
vt 0.2334918 -0.01418051
vt 0.1996256 -0.01418051
vt 0.2334918 0.01418051
vt 0.1996256 0.01418051
vt -0.2007057 -0.01418051
vt -0.2324848 -0.01418051
vt -0.2007057 0.01418051
vt -0.2324848 0.01418051
vt 0.1992227 -0.01418051
vt 0.1699609 -0.01418051
vt 0.1992227 0.01418051
vt 0.1699609 0.01418051
vt -0.1715478 -0.01418051
vt -0.198025 -0.01418051
vt -0.1715478 0.01418051
vt -0.198025 0.01418051
vt 0.1244117 -0.01418051
vt 0.09874101 -0.01418051
vt 0.1244117 0.01418051
vt 0.09874101 0.01418051
vt -0.1009293 -0.01418051
vt -0.1230149 -0.01418051
vt -0.1009293 0.01418051
vt -0.1230149 0.01418051
vt -0.09874099 -0.01418051
vt -0.1244117 -0.01418051
vt -0.09874099 0.01418051
vt -0.1244117 0.01418051
vt 0.1230149 -0.01418051
vt 0.1009293 -0.01418051
vt 0.1230149 0.01418051
vt 0.1009293 0.01418051
vt -0.1699609 -0.01418051
vt -0.1992227 -0.01418051
vt -0.1699609 0.01418051
vt -0.1992227 0.01418051
vt 0.198025 -0.01418051
vt 0.1715478 -0.01418051
vt 0.198025 0.01418051
vt 0.1715478 0.01418051
vt -0.1996256 -0.01418051
vt -0.2334918 -0.01418051
vt -0.1996256 0.01418051
vt -0.2334918 0.01418051
vt 0.2324847 -0.01418051
vt 0.2324847 0.01418051
vt -0.2394635 -0.01418051
vt -0.2394635 0.01418051
vt 0.2386466 -0.01418051
vt 0.2017842 -0.01418051
vt 0.2386466 0.01418051
vt 0.2017842 0.01418051
vt -0.1850464 -0.01418051
vt -0.2274718 -0.01418051
vt -0.1850464 0.01418051
vt -0.2274718 0.01418051
vt 0.2267934 -0.01418051
vt 0.185698 -0.01418051
vt 0.2267934 0.01418051
vt 0.185698 0.01418051
vt -0.1588328 -0.01418051
vt -0.2041022 -0.01418051
vt -0.1588328 0.01418051
vt -0.2041022 0.01418051
vt 0.2035093 -0.01418051
vt 0.1594073 -0.01418051
vt 0.2035093 0.01418051
vt 0.1594073 0.01418051
vt -0.1269593 -0.01418051
vt -0.1737122 -0.01418051
vt -0.1269593 0.01418051
vt -0.1737122 0.01418051
vt 0.1731618 -0.01418051
vt 0.1275032 -0.01418051
vt 0.1731618 0.01418051
vt 0.1275032 0.01418051
vt -0.1161094 -0.1334572
vt -0.1135721 -0.08677319
vt -0.1061094 -0.1334572
vt -0.103632 -0.08786575
vt 0.1135721 -0.08677319
vt 0.1161094 -0.1334572
vt 0.103632 -0.08786575
vt 0.1061094 -0.1334572
vt -0.1060712 -0.04212951
vt -0.09632613 -0.04437311
vt 0.1060712 -0.04212951
vt 0.09632613 -0.04437311
vt -0.09393445 -0.001477286
vt -0.08457331 -0.004994243
vt 0.09393445 -0.001477286
vt 0.08457331 -0.004994243
vt -0.07769233 0.03340679
vt -0.06902066 0.02842663
vt 0.07769233 0.03340679
vt 0.06902066 0.02842663
vt -0.05805468 0.0609981
vt -0.05060565 0.05432637
vt 0.05805468 0.0609981
vt 0.05060565 0.05432637
vt -0.03587976 0.08009078
vt -0.03055943 0.07162355
vt 0.03587976 0.08009078
vt 0.03055943 0.07162355
vt -0.01213673 0.0898504
vt -0.0101449 0.08005077
vt 0.01213673 0.0898504
vt 0.0101449 0.08005077
vt 0.1135721 -0.1801412
vt 0.103632 -0.1790486
vt -0.1135721 -0.1801412
vt -0.103632 -0.1790486
vt 0.1060712 -0.2247848
vt 0.09632613 -0.2225412
vt -0.1060712 -0.2247848
vt -0.09632613 -0.2225412
vt 0.09393446 -0.2654371
vt 0.08457332 -0.2619201
vt -0.09393446 -0.2654371
vt -0.08457332 -0.2619201
vt 0.07769234 -0.3003211
vt 0.06902067 -0.295341
vt -0.07769234 -0.3003211
vt -0.06902067 -0.295341
vt 0.05805467 -0.3279124
vt 0.05060565 -0.3212407
vt -0.05805467 -0.3279124
vt -0.05060565 -0.3212407
vt 0.03587978 -0.3470051
vt 0.03055944 -0.3385379
vt -0.03587978 -0.3470051
vt -0.03055944 -0.3385379
vt 0.01213672 -0.3567648
vt 0.01014489 -0.3469651
vt -0.01213672 -0.3567648
vt -0.01014489 -0.3469651
vt 0.03248952 -0.002073854
vt -0.008117154 -0.002073854
vt 0.03248952 0.002073854
vt -0.008117154 0.002073854
vt 0.004710354 -0.002073854
vt -0.02826772 -0.002073854
vt 0.004710354 0.002073854
vt -0.02826772 0.002073854
vt 0.01283764 -0.002073855
vt -0.01283766 -0.002073854
vt 0.01283764 0.002073854
vt -0.01283766 0.002073855
vt 0.005765572 -0.002073854
vt -0.005765557 -0.002073854
vt 0.00576558 0.002073854
vt -0.005765557 0.002073854
vt 0.008117147 -0.002073854
vt -0.03248952 -0.002073854
vt 0.008117147 0.002073854
vt -0.03248952 0.002073854
vt 0.0282677 -0.002073854
vt -0.004710346 -0.002073854
vt 0.0282677 0.002073854
vt -0.004710346 0.002073854
vt -0.0256753 0
vt -0.01283763 0.03852399
vt -0.01567534 -1.117587E-08
vt -0.005765572 0.03145394
vt 0.01283763 0.03852399
vt 0.0256753 0
vt 0.005765572 0.03145395
vt 0.01567532 -1.117587E-08
vt 0.01283763 -0.03852399
vt 0.005765572 -0.03145394
vt -0.01283764 -0.03852399
vt -0.005765572 -0.03145394

vn -0.9939143 0 0.1101555
vn -1 0 -7.088498E-08
vn 1 0 1.585584E-07
vn 0.993917 0 -0.1101316
vn -0.9740538 0 0.2263166
vn 0.9740679 0 -0.2262556
vn -0.9348572 0 0.355024
vn 0.9349085 0 -0.3548888
vn -0.8642417 0 0.5030768
vn 0.864413 0 -0.5027825
vn -0.738972 0 0.6737362
vn 0.739493 0 -0.6731642
vn -0.5230473 0 0.8523036
vn 0.5241407 0 -0.8516317
vn -0.1937653 0 0.9810479
vn 0.1945004 0 -0.9809024
vn 0.1937653 0 0.9810479
vn -0.1945005 0 -0.9809024
vn 0.5230475 0 0.8523036
vn -0.5241408 0 -0.8516316
vn 0.738972 0 0.6737361
vn -0.7394931 0 -0.6731641
vn 0.8642417 0 0.5030768
vn -0.864413 0 -0.5027825
vn 0.9348572 0 0.3550238
vn -0.9349086 0 -0.3548887
vn 0.9740538 0 0.2263165
vn -0.974068 0 -0.2262555
vn 0.9939144 0 0.1101555
vn -0.993917 0 -0.1101316
vn 0.9348572 0 -0.3550238
vn -0.9349085 0 0.3548888
vn 0.8642417 0 -0.5030769
vn -0.864413 0 0.5027825
vn 0.7389721 0 -0.673736
vn -0.7394933 0 0.673164
vn 0.5230477 0 -0.8523034
vn -0.524141 0 0.8516315
vn 0.1937654 0 -0.9810479
vn -0.1945006 0 0.9809024
vn -0.1937654 0 -0.9810479
vn 0.1945005 0 0.9809024
vn -0.5230477 0 -0.8523034
vn 0.524141 0 0.8516315
vn -0.738972 0 -0.6737361
vn 0.7394932 0 0.673164
vn -0.8642416 0 -0.5030769
vn 0.864413 0 0.5027825
vn -0.9348572 0 -0.3550239
vn 0.9349085 0 0.3548888
vn 0 -1 0
vn 0 1 0
vn -1.313039E-07 -0.5847457 -0.8112167
vn 9.959848E-08 0.5913993 0.8063788
vn 1.969559E-07 0.5847457 -0.8112167
vn -6.639898E-08 -0.5913992 0.8063789
vn 1.313039E-07 0.5847457 0.8112167
vn -1.659974E-07 -0.5913993 -0.8063789
vn -1.969559E-07 -0.5847457 0.8112167
vn 6.639898E-08 0.5913993 -0.8063789

usemtl ProBuilderDefault
f 3/3/1 4/4/2 2/2/2 1/1/1
f 7/7/3 8/8/4 6/6/4 5/5/3
f 10/11/5 3/12/1 1/10/1 9/9/5
f 8/15/4 12/16/6 11/14/6 6/13/4
f 14/19/7 10/20/5 9/18/5 13/17/7
f 12/23/6 16/24/8 15/22/8 11/21/6
f 18/27/9 14/28/7 13/26/7 17/25/9
f 16/31/8 20/32/10 19/30/10 15/29/8
f 22/35/11 18/36/9 17/34/9 21/33/11
f 20/39/10 24/40/12 23/38/12 19/37/10
f 26/43/13 22/44/11 21/42/11 25/41/13
f 24/47/12 28/48/14 27/46/14 23/45/12
f 30/50/15 26/27/13 25/25/13 29/49/15
f 28/53/14 32/54/16 31/52/16 27/51/14
f 34/57/17 30/58/15 29/56/15 33/55/17
f 32/61/16 36/62/18 35/60/18 31/59/16
f 38/47/19 34/64/17 33/63/17 37/45/19
f 36/67/18 40/68/20 39/66/20 35/65/18
f 42/71/21 38/72/19 37/70/19 41/69/21
f 40/74/20 44/27/22 43/25/22 39/73/20
f 46/77/23 42/78/21 41/76/21 45/75/23
f 44/81/22 48/82/24 47/80/24 43/79/22
f 50/84/25 46/47/23 45/45/23 49/83/25
f 48/87/24 52/88/26 51/86/26 47/85/24
f 54/91/27 50/92/25 49/90/25 53/89/27
f 52/95/26 56/96/28 55/94/28 51/93/26
f 58/99/29 54/100/27 53/98/27 57/97/29
f 56/103/28 60/104/30 59/102/30 55/101/28
f 62/107/3 58/108/29 57/106/29 61/105/3
f 60/111/30 64/112/2 63/110/2 59/109/30
f 66/115/4 62/116/3 61/114/3 65/113/4
f 64/119/2 68/120/1 67/118/1 63/117/2
f 70/123/6 66/124/4 65/122/4 69/121/6
f 68/127/1 72/128/5 71/126/5 67/125/1
f 74/131/31 70/132/6 69/130/6 73/129/31
f 72/135/5 76/136/32 75/134/32 71/133/5
f 78/139/33 74/140/31 73/138/31 77/137/33
f 76/143/32 80/144/34 79/142/34 75/141/32
f 82/147/35 78/148/33 77/146/33 81/145/35
f 80/151/34 84/152/36 83/150/36 79/149/34
f 86/155/37 82/156/35 81/154/35 85/153/37
f 84/159/36 88/160/38 87/158/38 83/157/36
f 90/163/39 86/164/37 85/162/37 89/161/39
f 88/167/38 92/168/40 91/166/40 87/165/38
f 94/57/41 90/58/39 89/56/39 93/55/41
f 92/61/40 96/62/42 95/60/42 91/59/40
f 98/171/43 94/172/41 93/170/41 97/169/43
f 96/175/42 100/176/44 99/174/44 95/173/42
f 102/179/45 98/180/43 97/178/43 101/177/45
f 100/183/44 104/184/46 103/182/46 99/181/44
f 106/187/47 102/188/45 101/186/45 105/185/47
f 104/190/46 108/140/48 107/138/48 103/189/46
f 110/151/49 106/192/47 105/191/47 109/149/49
f 108/195/48 112/196/50 111/194/50 107/193/48
f 114/199/28 110/200/49 109/198/49 113/197/28
f 112/203/50 116/204/27 115/202/27 111/201/50
f 118/207/30 114/208/28 113/206/28 117/205/30
f 116/211/27 120/212/29 119/210/29 115/209/27
f 4/215/2 118/216/30 117/214/30 2/213/2
f 120/219/29 7/220/3 5/218/3 119/217/29
f 5/223/51 6/224/51 1/222/51 2/221/51
f 8/227/52 7/228/52 4/226/52 3/225/52
f 6/224/51 11/230/51 9/229/51 1/222/51
f 12/232/52 8/227/52 3/225/52 10/231/52
f 11/230/51 15/234/51 13/233/51 9/229/51
f 16/236/52 12/232/52 10/231/52 14/235/52
f 15/234/51 19/238/51 17/237/51 13/233/51
f 20/240/52 16/236/52 14/235/52 18/239/52
f 19/238/51 23/242/51 21/241/51 17/237/51
f 24/244/52 20/240/52 18/239/52 22/243/52
f 23/242/51 27/246/51 25/245/51 21/241/51
f 28/248/52 24/244/52 22/243/52 26/247/52
f 27/246/51 31/250/51 29/249/51 25/245/51
f 32/252/52 28/248/52 26/247/52 30/251/52
f 31/250/51 35/252/51 33/251/51 29/249/51
f 36/250/52 32/252/52 30/251/52 34/249/52
f 35/252/51 39/248/51 37/247/51 33/251/51
f 40/246/52 36/250/52 34/249/52 38/245/52
f 39/248/51 43/244/51 41/243/51 37/247/51
f 44/242/52 40/246/52 38/245/52 42/241/52
f 43/244/51 47/240/51 45/239/51 41/243/51
f 48/238/52 44/242/52 42/241/52 46/237/52
f 47/240/51 51/236/51 49/235/51 45/239/51
f 52/234/52 48/238/52 46/237/52 50/233/52
f 51/236/51 55/232/51 53/231/51 49/235/51
f 56/230/52 52/234/52 50/233/52 54/229/52
f 55/232/51 59/227/51 57/225/51 53/231/51
f 60/224/52 56/230/52 54/229/52 58/222/52
f 59/227/51 63/228/51 61/226/51 57/225/51
f 64/223/52 60/224/52 58/222/52 62/221/52
f 63/228/51 67/254/51 65/253/51 61/226/51
f 68/256/52 64/223/52 62/221/52 66/255/52
f 67/254/51 71/258/51 69/257/51 65/253/51
f 72/260/52 68/256/52 66/255/52 70/259/52
f 71/258/51 75/262/51 73/261/51 69/257/51
f 76/264/52 72/260/52 70/259/52 74/263/52
f 75/262/51 79/266/51 77/265/51 73/261/51
f 80/268/52 76/264/52 74/263/52 78/267/52
f 79/266/51 83/270/51 81/269/51 77/265/51
f 84/272/52 80/268/52 78/267/52 82/271/52
f 83/270/51 87/274/51 85/273/51 81/269/51
f 88/276/52 84/272/52 82/271/52 86/275/52
f 87/274/51 91/278/51 89/277/51 85/273/51
f 92/280/52 88/276/52 86/275/52 90/279/52
f 91/278/51 95/280/51 93/279/51 89/277/51
f 96/278/52 92/280/52 90/279/52 94/277/52
f 95/280/51 99/276/51 97/275/51 93/279/51
f 100/274/52 96/278/52 94/277/52 98/273/52
f 99/276/51 103/272/51 101/271/51 97/275/51
f 104/270/52 100/274/52 98/273/52 102/269/52
f 103/272/51 107/268/51 105/267/51 101/271/51
f 108/266/52 104/270/52 102/269/52 106/265/52
f 107/268/51 111/264/51 109/263/51 105/267/51
f 112/262/52 108/266/52 106/265/52 110/261/52
f 111/264/51 115/260/51 113/259/51 109/263/51
f 116/258/52 112/262/52 110/261/52 114/257/52
f 115/260/51 119/256/51 117/255/51 113/259/51
f 120/254/52 116/258/52 114/257/52 118/253/52
f 119/256/51 5/223/51 2/221/51 117/255/51
f 7/228/52 120/254/52 118/253/52 4/226/52
f 123/283/53 124/284/51 122/282/51 121/281/53
f 127/287/52 128/288/54 126/286/54 125/285/52
f 130/291/55 123/292/53 121/290/53 129/289/55
f 128/295/54 132/296/56 131/294/56 126/293/54
f 134/299/52 130/300/55 129/298/55 133/297/52
f 132/303/56 136/304/51 135/302/51 131/301/56
f 138/283/57 134/284/52 133/282/52 137/281/57
f 136/287/51 140/288/58 139/286/58 135/285/51
f 142/291/59 138/292/57 137/290/57 141/289/59
f 140/295/58 144/296/60 143/294/60 139/293/58
f 124/299/51 142/300/59 141/298/59 122/297/51
f 144/303/60 127/304/52 125/302/52 143/301/60
f 125/307/2 126/308/2 121/306/2 122/305/2
f 128/311/3 127/312/3 124/310/3 123/309/3
f 126/308/2 131/311/2 129/309/2 121/306/2
f 132/308/3 128/311/3 123/309/3 130/306/3
f 131/311/2 135/312/2 133/310/2 129/309/2
f 136/307/3 132/308/3 130/306/3 134/305/3
f 135/312/2 139/314/2 137/313/2 133/310/2
f 140/316/3 136/307/3 134/305/3 138/315/3
f 139/314/2 143/316/2 141/315/2 137/313/2
f 144/314/3 140/316/3 138/315/3 142/313/3
f 143/316/2 125/307/2 122/305/2 141/315/2
f 127/312/3 144/314/3 142/313/3 124/310/3

