# ProBuilder 5.0.6
# https://unity3d.com/unity/features/worldbuilding/probuilder
# 11/22/2022 1:50:09 AM

mtllib ./FirePlace.mtl
o FirePlace

g FirePlace
v -0.02981291 -0.108278 0.02748395
v -0.02981291 0.1082783 0.02748395
v -0.02814576 -0.108278 0.03829993
v -0.02814576 0.1082783 0.03829993
v -0.02332499 -0.108278 0.04794382
v -0.02332499 0.1082783 0.04794382
v -0.01587299 -0.108278 0.05537058
v -0.01587299 0.1082783 0.05537058
v -0.006597314 -0.108278 0.05977539
v -0.006597314 0.1082783 0.05977539
v 0.003496885 -0.108278 0.06068091
v 0.003496885 0.1082783 0.06068091
v 0.01331574 -0.108278 0.05798903
v 0.01331574 0.1082783 0.05798903
v 0.02179523 -0.108278 0.05199146
v 0.02179523 0.1082783 0.05199146
v 0.02801646 -0.108278 0.04333811
v 0.02801646 0.1082783 0.04333811
v 0.03130528 -0.108278 0.03296671
v 0.03130528 0.1082783 0.03296671
v 0.03130528 -0.108278 0.02200118
v 0.03130528 0.1082783 0.02200118
v 0.02801646 -0.108278 0.01162979
v 0.02801646 0.1082783 0.01162979
v 0.02179524 -0.108278 0.002976436
v 0.02179524 0.1082783 0.002976436
v 0.01331574 -0.108278 -0.003021147
v 0.01331574 0.1082783 -0.003021147
v 0.003496889 -0.108278 -0.00571302
v 0.003496889 0.1082783 -0.00571302
v -0.006597318 -0.108278 -0.004807491
v -0.006597318 0.1082783 -0.004807491
v -0.01587299 -0.108278 -0.0004026927
v -0.01587299 0.1082783 -0.0004026927
v -0.02332498 -0.108278 0.007024057
v -0.02332498 0.1082783 0.007024057
v -0.02814576 -0.108278 0.01666797
v -0.02814576 0.1082783 0.01666797
v 0.0009560101 -0.108278 0.02748395
v 0.0009560101 0.1082783 0.02748395
v 0.1082783 -0.02561202 0.02748395
v -0.1082779 -0.02561129 0.02748394
v 0.108278 -0.02394529 0.03829957
v -0.1082779 -0.02394401 0.03829957
v 0.1082783 -0.01912448 0.04794408
v -0.108278 -0.01912327 0.04794408
v 0.1082782 -0.01167223 0.05537035
v -0.1082781 -0.01167149 0.05537034
v 0.1082784 -0.002396697 0.05977537
v -0.108278 -0.002395492 0.05977536
v 0.1082785 0.007697731 0.06068135
v -0.1082778 0.007698465 0.06068135
v 0.1082785 0.01751645 0.05798913
v -0.1082778 0.01751718 0.05798912
v 0.1082784 0.0259962 0.05199147
v -0.1082778 0.02599694 0.05199146
v 0.1082784 0.0322172 0.04333783
v -0.1082779 0.03221794 0.04333782
v 0.1082785 0.03550589 0.03296662
v -0.1082779 0.0355071 0.03296661
v 0.1082785 0.03550589 0.02200127
v -0.1082779 0.0355071 0.02200126
v 0.1082784 0.0322172 0.01163006
v -0.1082779 0.03221794 0.01163005
v 0.1082784 0.0259962 0.002976418
v -0.1082778 0.02599693 0.002976414
v 0.1082785 0.01751644 -0.003021237
v -0.1082778 0.01751718 -0.003021244
v 0.1082785 0.007697726 -0.005713459
v -0.1082778 0.00769846 -0.005713467
v 0.1082784 -0.002396701 -0.004807465
v -0.108278 -0.002395501 -0.004807476
v 0.1082782 -0.01167223 -0.0004024431
v -0.1082781 -0.0116715 -0.0004024506
v 0.1082783 -0.01912448 0.007023815
v -0.108278 -0.01912328 0.007023811
v 0.108278 -0.0239453 0.01666833
v -0.1082779 -0.02394401 0.01666832
v 0.1082781 0.005156914 0.02748395
v -0.1082783 0.005157651 0.02748394
v 0.01821498 -0.06807645 0.008066189
v -0.05272682 0.03787515 -0.04292298
v 0.01341721 -0.06660793 0.01779272
v -0.05752452 0.03934322 -0.03319741
v 0.01134039 -0.06318167 0.02780153
v -0.05960181 0.04276939 -0.02318764
v 0.0122091 -0.05816799 0.0370102
v -0.05873262 0.04778315 -0.01397897
v 0.01592992 -0.05211098 0.04442025
v -0.05501188 0.05384064 -0.006569874
v 0.02209926 -0.0456659 0.04922773
v -0.04884246 0.06028524 -0.001761448
v 0.03004871 -0.03953216 0.05091287
v -0.04089301 0.06641898 -7.630512E-05
v 0.03891698 -0.03437422 0.04929258
v -0.03202475 0.07157692 -0.001696598
v 0.04774282 -0.03075077 0.04454328
v -0.02319937 0.0752003 -0.00644685
v 0.05556954 -0.02905463 0.03717805
v -0.01537218 0.0768965 -0.01381208
v 0.06154955 -0.02946959 0.02799512
v -0.009392641 0.07648147 -0.02299405
v 0.06503408 -0.03195123 0.01799107
v -0.005907729 0.07400038 -0.0329981
v 0.06564641 -0.03622928 0.008249287
v -0.005295314 0.06972186 -0.04273988
v 0.06331965 -0.04184118 -0.0001745187
v -0.007622071 0.06410996 -0.05116368
v 0.05830652 -0.04817888 -0.00636768
v -0.01263574 0.05777266 -0.0573578
v 0.05114938 -0.05455483 -0.00965881
v -0.01979234 0.05139631 -0.06064893
v 0.04262433 -0.06027905 -0.009692181
v -0.02831747 0.04567257 -0.06068135
v 0.0336551 -0.06473023 -0.00646304
v -0.03728663 0.0412209 -0.05745221
v 0.0252137 -0.06742672 -0.0003213771
v -0.04572802 0.03852442 -0.0513115
v 0.03852565 -0.04853619 0.02041055
v -0.03241615 0.05741543 -0.03057862

vt 0.02262152 -0.108278
vt 0.02262152 0.1082783
vt 0.03356523 -0.108278
vt 0.03356523 0.1082783
vt 0.02167346 -0.108278
vt 0.02167346 0.1082783
vt 0.03245514 -0.108278
vt 0.03245514 0.1082783
vt 0.01732265 -0.108278
vt 0.01732265 0.1082783
vt 0.02784353 -0.108278
vt 0.02784353 0.1082783
vt 0.009413701 -0.108278
vt 0.009413701 0.1082783
vt 0.01968212 -0.108278
vt 0.01968212 0.1082783
vt -0.001230099 -0.108278
vt -0.001230099 0.1082783
vt 0.008904635 -0.108278
vt 0.008904635 0.1082783
vt -0.01267144 -0.108278
vt -0.01267144 0.1082783
vt -0.002490272 -0.108278
vt -0.002490272 0.1082783
vt -0.02261499 -0.108278
vt -0.02261499 0.1082783
vt -0.01222882 -0.108278
vt -0.01222882 0.1082783
vt -0.02949138 -0.108278
vt -0.02949138 0.1082783
vt -0.01883379 -0.108278
vt -0.01883379 0.1082783
vt -0.03284228 -0.108278
vt -0.03284228 0.1082783
vt -0.02196193 -0.108278
vt -0.02196193 0.1082783
vt -0.02200118 -0.108278
vt -0.02200118 0.1082783
vt -0.03043468 -0.108278
vt -0.03043468 0.1082783
vt -0.01955433 -0.108278
vt -0.01955433 0.1082783
vt -0.02579697 -0.108278
vt -0.02579697 0.1082783
vt -0.01513938 -0.108278
vt -0.01513938 0.1082783
vt -0.009126659 -0.108278
vt -0.009126659 0.1082783
vt -0.00186194 -0.108278
vt -0.00186194 0.1082783
vt -0.003993355 -0.108278
vt -0.003993355 0.1082783
vt 0.006141387 -0.108278
vt 0.006141387 0.1082783
vt 0.003897246 -0.108278
vt 0.003897246 0.1082783
vt 0.01416566 -0.108278
vt 0.01416566 0.1082783
vt 0.01095866 -0.108278
vt 0.01095866 0.1082783
vt 0.02147954 -0.108278
vt 0.02147954 0.1082783
vt 0.01671203 -0.108278
vt 0.01671203 0.1082783
vt 0.02749372 -0.108278
vt 0.02749372 0.1082783
vt 0.0207611 -0.108278
vt 0.0207611 0.1082783
vt 0.03170481 -0.108278
vt 0.03170481 0.1082783
vt -0.02981291 0.02748395
vt 0.0009560101 0.02748395
vt -0.02814576 0.03829993
vt 0.02981291 0.02748395
vt -0.0009560101 0.02748395
vt 0.02814576 0.03829993
vt -0.02332499 0.04794382
vt 0.02332499 0.04794382
vt -0.01587299 0.05537058
vt 0.01587299 0.05537058
vt -0.006597314 0.05977539
vt 0.006597314 0.05977539
vt 0.003496885 0.06068091
vt -0.003496885 0.06068091
vt 0.01331574 0.05798903
vt -0.01331574 0.05798903
vt 0.02179523 0.05199146
vt -0.02179523 0.05199146
vt 0.02801646 0.04333811
vt -0.02801646 0.04333811
vt 0.03130528 0.03296671
vt -0.03130528 0.03296671
vt 0.03130528 0.02200118
vt -0.03130528 0.02200118
vt 0.02801646 0.01162979
vt -0.02801646 0.01162979
vt 0.02179524 0.002976436
vt -0.02179524 0.002976436
vt 0.01331574 -0.003021147
vt -0.01331574 -0.003021147
vt 0.003496889 -0.00571302
vt -0.003496889 -0.00571302
vt -0.006597318 -0.004807491
vt 0.006597318 -0.004807491
vt -0.01587299 -0.0004026927
vt 0.01587299 -0.0004026927
vt -0.02332498 0.007024057
vt 0.02332498 0.007024057
vt -0.02814576 0.01666797
vt 0.02814576 0.01666797
vt -0.0763391 -0.07255678
vt -0.0763391 0.1439995
vt -0.06539546 -0.07255639
vt -0.06539538 0.1439996
vt -0.05684978 -0.0710054
vt -0.05684977 0.1455504
vt -0.04606809 -0.07100575
vt -0.04606812 0.1455505
vt -0.03719586 -0.07551981
vt -0.03719584 0.1410366
vt -0.02667464 -0.07551966
vt -0.02667497 0.1410367
vt -0.0195651 -0.08651244
vt -0.0195651 0.1300438
vt -0.009297095 -0.08651255
vt -0.009296672 0.1300437
vt -0.006434626 -0.1033689
vt -0.00643462 0.1131874
vt 0.00370057 -0.1033689
vt 0.003700106 0.1131873
vt 0.0002867947 -0.1238933
vt 0.0002867919 0.09266293
vt 0.01046797 -0.1238934
vt 0.01046796 0.09266289
vt 0.000232962 -0.1448213
vt 0.0002329694 0.07173499
vt 0.01061913 -0.1448212
vt 0.01061914 0.0717351
vt 0.09752186 -0.09941963
vt 0.09752187 0.1171366
vt 0.1081795 -0.09941956
vt 0.1081795 0.1171367
vt 0.08757443 -0.08501792
vt 0.08757444 0.1315383
vt 0.09845463 -0.08501801
vt 0.09845479 0.1315383
vt 0.07449491 -0.07542159
vt 0.07449492 0.1411347
vt 0.08546044 -0.07542159
vt 0.08546045 0.1411347
vt 0.05883787 -0.07106007
vt 0.05883788 0.1454962
vt 0.06971809 -0.07106
vt 0.06971823 0.1454962
vt 0.04107143 -0.07246557
vt 0.04107144 0.1440907
vt 0.05172902 -0.07246563
vt 0.05172903 0.1440906
vt 0.02225 -0.08021231
vt 0.02225003 0.136344
vt 0.03263622 -0.08021242
vt 0.03263626 0.1363439
vt 0.004581754 -0.09430631
vt 0.004581715 0.12225
vt 0.01476287 -0.09430627
vt 0.01476284 0.12225
vt -0.008785889 -0.1133719
vt -0.0087859 0.1031843
vt 0.001348843 -0.1133718
vt 0.001348367 0.1031844
vt -0.01512026 -0.13451
vt -0.01512024 0.08204632
vt -0.004851827 -0.1345099
vt -0.004851384 0.08204635
vt -0.01350544 -0.1545018
vt -0.01350543 0.0620545
vt -0.002984563 -0.1545019
vt -0.002984894 0.06205443
vt -0.1078805 -0.09165086
vt -0.1078805 0.1249055
vt -0.09709877 -0.09165052
vt -0.0970988 0.1249053
vt -0.09389562 -0.07958971
vt -0.09389561 0.1369662
vt -0.08295199 -0.07959008
vt -0.0829519 0.1369662
vt -0.03424404 -0.005370855
vt -0.003475124 -0.005371338
vt -0.03257714 0.005445122
vt 0.03424209 -0.005371045
vt 0.003473176 -0.005371049
vt 0.03257481 0.005444936
vt -0.02774996 0.01508724
vt 0.02775113 0.01508907
vt -0.02030052 0.02251553
vt 0.02030134 0.02251544
vt -0.01102407 0.02691947
vt 0.01102381 0.0269197
vt -0.0009291172 0.02782441
vt 0.0009292252 0.02782519
vt 0.008889679 0.02513271
vt -0.008889686 0.02513282
vt 0.01736885 0.01913586
vt -0.01736866 0.01913554
vt 0.02358989 0.01048224
vt -0.02358971 0.01048211
vt 0.02687683 0.0001107026
vt -0.02687765 0.0001106355
vt 0.02687695 -0.01085484
vt -0.02687693 -0.01085499
vt 0.02358882 -0.02122623
vt -0.02358795 -0.02122642
vt 0.01736761 -0.02987924
vt -0.01736773 -0.02987921
vt 0.008887425 -0.03587693
vt -0.008887456 -0.03587672
vt -0.000930313 -0.03856881
vt 0.0009302329 -0.03856915
vt -0.01102446 -0.03766358
vt 0.01102452 -0.0376628
vt -0.02030096 -0.03325843
vt 0.02030093 -0.03325857
vt -0.02775267 -0.02583152
vt 0.02775269 -0.0258313
vt -0.03257311 -0.01618823
vt 0.0325728 -0.01618632
vt 0.04540981 -0.06678069
vt 0.04541038 0.07054499
vt 0.05635417 -0.06678066
vt 0.05635381 0.07054497
vt 0.04964332 -0.05477749
vt 0.04964273 0.08254856
vt 0.06042431 -0.05477748
vt 0.06042467 0.08254839
vt 0.04929324 -0.05360201
vt 0.04929319 0.08372365
vt 0.05981424 -0.05360176
vt 0.05981427 0.08372372
vt 0.04564607 -0.06275788
vt 0.04564615 0.07456766
vt 0.05591451 -0.06275822
vt 0.05591416 0.07456808
vt 0.03764665 -0.07848096
vt 0.03764642 0.05884513
vt 0.04778132 -0.07848044
vt 0.04778128 0.05884488
vt 0.02380346 -0.09485715
vt 0.02380343 0.04246857
vt 0.03398465 -0.09485712
vt 0.03398462 0.04246861
vt 0.004262661 -0.1054399
vt 0.004262915 0.03188585
vt 0.01464901 -0.10544
vt 0.01464926 0.03188568
vt -0.0182046 -0.1054522
vt -0.0182046 0.03187344
vt -0.007547153 -0.1054526
vt -0.007547145 0.03187362
vt -0.03854436 -0.09394528
vt -0.03854456 0.04338044
vt -0.02766408 -0.09394513
vt -0.02766393 0.04338039
vt -0.05158505 -0.07566306
vt -0.05158478 0.06166272
vt -0.04061882 -0.07566279
vt -0.04061961 0.06166282
vt -0.05617429 -0.0595686
vt -0.05617416 0.07775697
vt -0.04529399 -0.05956886
vt -0.04529385 0.07775694
vt -0.05574105 -0.05277299
vt -0.055741 0.08455302
vt -0.04508368 -0.05277285
vt -0.04508344 0.08455276
vt -0.05362991 -0.05706358
vt -0.05362978 0.08026233
vt -0.04324393 -0.0570636
vt -0.0432438 0.08026232
vt -0.05001134 -0.07013011
vt -0.05001165 0.06719506
vt -0.03983033 -0.07013056
vt -0.03983005 0.06719555
vt -0.04249573 -0.08700366
vt -0.04249541 0.05032261
vt -0.03236119 -0.08700354
vt -0.03236099 0.05032213
vt -0.02869682 -0.1012352
vt -0.02869675 0.03609051
vt -0.01842822 -0.1012352
vt -0.01842836 0.03609053
vt -0.008649256 -0.1069414
vt -0.008649369 0.03038459
vt 0.001871565 -0.1069411
vt 0.001871603 0.03038441
vt 0.01412154 -0.1009855
vt 0.01412174 0.03634021
vt 0.0249034 -0.1009855
vt 0.02490306 0.03634052
vt -0.0961277 -0.04631141
vt -0.09612794 0.09101431
vt -0.08518441 -0.04631155
vt -0.0851839 0.09101422
vt -0.004667804 0.04959625
vt 0.0261012 0.04959626
vt -0.00300025 0.06041267
vt 0.004667679 0.04959767
vt -0.0261014 0.04959755
vt 0.003000459 0.06041344
vt -0.007473143 0.05723452
vt 0.02162851 0.04641806
vt -0.002652416 0.06687841
vt 0.007471876 0.05722883
vt -0.02162952 0.04641296
vt 0.002651377 0.06687296
vt -0.007246399 0.06062984
vt 0.01703472 0.04017016
vt 0.0002054926 0.06805698
vt 0.007245645 0.06062807
vt -0.01703536 0.0401682
vt 0.0009950791 0.06635636
vt 0.01782415 0.03846984
vt 0.01027059 0.07076147
vt -0.0009978414 0.06635977
vt -0.01782656 0.03847273
vt -0.01027337 0.07076406
vt 0.01411384 0.06936682
vt 0.02166696 0.03707511
vt 0.02420797 0.07027197
vt -0.01410954 0.06936488
vt -0.02166307 0.03707372
vt -0.0242039 0.07027071
vt 0.03314912 0.07201909
vt 0.03060824 0.03882211
vt 0.04296797 0.06932719
vt -0.03314913 0.07201916
vt -0.03060821 0.03882213
vt -0.042968 0.06932717
vt 0.03922803 0.07337466
vt 0.02686841 0.0428695
vt 0.0477075 0.06737703
vt -0.03922817 0.07337479
vt -0.02686819 0.04286973
vt -0.04770754 0.06737701
vt 0.04138202 0.07106077
vt 0.02054287 0.04655328
vt 0.04760381 0.06240802
vt -0.04138385 0.07106118
vt -0.02054457 0.04655369
vt -0.04760494 0.06240773
vt 0.0459808 0.06162327
vt 0.01892011 0.04576931
vt 0.04926937 0.05125207
vt -0.04597897 0.06162607
vt -0.01891889 0.04577165
vt -0.04926812 0.05125439
vt 0.0480339 0.04449625
vt 0.0176847 0.03901336
vt 0.04803373 0.03353025
vt -0.04803287 0.04449882
vt -0.01768344 0.03901615
vt -0.04803282 0.0335335
vt 0.05117282 0.02819476
vt 0.0208231 0.03367783
vt 0.04788354 0.01782365
vt -0.051172 0.02819579
vt -0.02082281 0.03367847
vt -0.04788326 0.01782431
vt 0.05335362 0.02386846
vt 0.02629349 0.03972284
vt 0.04713263 0.01521523
vt -0.05335364 0.02386981
vt -0.02629326 0.03972392
vt -0.04713248 0.0152164
vt 0.04850376 0.01870076
vt 0.0276647 0.0432085
vt 0.0400243 0.0127035
vt -0.04850316 0.01870147
vt -0.04002374 0.01270403
vt 0.03896689 0.01427351
vt 0.02660717 0.04477862
vt 0.02914812 0.01158162
vt -0.03896369 0.01427082
vt -0.02660357 0.04477536
vt -0.02914458 0.01157831
vt 0.02008926 0.01186195
vt 0.01754866 0.04505929
vt 0.009995175 0.01276797
vt -0.02009304 0.01186163
vt -0.01755226 0.04505873
vt -0.009999234 0.01276705
vt 0.007901497 0.009269029
vt 0.01545446 0.04156008
vt -0.001374533 0.01367345
vt -0.007900707 0.009267725
vt -0.01545448 0.0415596
vt 0.001374607 0.01367301
vt 0.004899808 0.009407777
vt -0.002552153 0.01683456
vt -0.004902201 0.009408213
vt 0.002549893 0.01683491
vt 0.001050002 0.01581223
vt 0.02533089 0.03627223
vt -0.003770743 0.02545642
vt -0.001048516 0.01581208
vt -0.02532961 0.0362719
vt 0.003772568 0.02545543
vt -0.002320662 0.02649816
vt 0.026781 0.03731417
vt -0.003988214 0.03731377
vt 0.002320195 0.02649657
vt -0.02678173 0.03731244
vt 0.003986882 0.03731281

vn -1 0 0
vn -0.9528685 0 0.3033838
vn -0.8107746 0 0.5853584
vn -0.5757532 0 0.8176236
vn -0.2632676 0 0.9647228
vn 0.08893813 0 0.9960371
vn 0.4273824 0 0.9040709
vn 0.7043747 0 0.7098283
vn 0.8937322 0 0.4486007
vn 0.9882363 0 0.1529345
vn 0.9882363 0 -0.1529344
vn 0.8937324 0 -0.4486005
vn 0.7043748 0 -0.7098283
vn 0.4273822 0 -0.9040711
vn 0.08893776 0 -0.9960372
vn -0.2632677 0 -0.9647228
vn -0.5757528 0 -0.8176238
vn -0.8107745 0 -0.5853586
vn -0.9528685 0 -0.3033838
vn 0 -1 0
vn 0 1 0
vn -5.01155E-06 -0.9528729 0.3033697
vn -4.616951E-06 -0.8107671 0.5853689
vn -2.37044E-06 -0.5757493 0.8176263
vn -1.261346E-06 -0.2632962 0.9647151
vn 2.176994E-07 0.08893368 0.9960375
vn 1.431723E-06 0.4273949 0.904065
vn 2.367466E-06 0.7043836 0.7098195
vn 3.013344E-06 0.8937412 0.448583
vn 4.97592E-06 0.9882352 0.1529418
vn 5.513278E-06 0.9882367 -0.1529318
vn 3.593844E-06 0.8937365 -0.4485924
vn 2.417481E-06 0.7043835 -0.7098196
vn 1.478448E-06 0.4273949 -0.9040651
vn 3.356552E-07 0.08893412 -0.9960375
vn -1.364224E-06 -0.2633021 -0.9647135
vn -2.144994E-06 -0.5757387 -0.8176338
vn -4.112032E-06 -0.8107708 -0.5853637
vn -5.580686E-06 -0.9528773 -0.3033561
vn 1 9.201554E-06 3.30256E-05
vn -0.6601186 -0.6350611 -0.4011742
vn -0.7944437 -0.5936466 -0.1282299
vn -0.8544104 -0.4927511 0.1648612
vn -0.8259385 -0.3347051 0.4536498
vn -0.6998726 -0.1306672 0.7022139
vn -0.4844641 0.09417672 0.8697271
vn -0.210898 0.3056311 0.9284997
vn 0.07784361 0.474172 0.8769842
vn 0.345311 0.5845538 0.7342051
vn 0.5689425 0.6333828 0.524529
vn 0.735756 0.6218011 0.2683774
vn 0.8345965 0.5505967 -0.01708863
vn 0.8520551 0.420457 -0.3117979
vn 0.7751372 0.2371995 -0.5855755
vn 0.6018803 0.01878293 -0.7983655
vn 0.3523254 -0.2036961 -0.9134411
vn 0.06581741 -0.3965829 -0.9156364
vn -0.2159871 -0.5370465 -0.8154328
vn -0.4635292 -0.6166105 -0.6363428
vn 0.5165954 -0.7715318 0.3713056
vn -0.5165976 0.7715316 -0.3713031

usemtl FireWood
f 1/71/20 39/72/20 3/73/20
f 3/73/20 39/72/20 5/77/20
f 5/77/20 39/72/20 7/79/20
f 7/79/20 39/72/20 9/81/20
f 9/81/20 39/72/20 11/83/20
f 11/83/20 39/72/20 13/85/20
f 13/85/20 39/72/20 15/87/20
f 15/87/20 39/72/20 17/89/20
f 17/89/20 39/72/20 19/91/20
f 19/91/20 39/72/20 21/93/20
f 21/93/20 39/72/20 23/95/20
f 23/95/20 39/72/20 25/97/20
f 25/97/20 39/72/20 27/99/20
f 27/99/20 39/72/20 29/101/20
f 29/101/20 39/72/20 31/103/20
f 31/103/20 39/72/20 33/105/20
f 33/105/20 39/72/20 35/107/20
f 35/107/20 39/72/20 37/109/20
f 37/109/20 39/72/20 1/71/20
f 4/76/21 40/75/21 2/74/21
f 6/78/21 40/75/21 4/76/21
f 8/80/21 40/75/21 6/78/21
f 10/82/21 40/75/21 8/80/21
f 12/84/21 40/75/21 10/82/21
f 14/86/21 40/75/21 12/84/21
f 16/88/21 40/75/21 14/86/21
f 18/90/21 40/75/21 16/88/21
f 20/92/21 40/75/21 18/90/21
f 22/94/21 40/75/21 20/92/21
f 24/96/21 40/75/21 22/94/21
f 26/98/21 40/75/21 24/96/21
f 28/100/21 40/75/21 26/98/21
f 30/102/21 40/75/21 28/100/21
f 32/104/21 40/75/21 30/102/21
f 34/106/21 40/75/21 32/104/21
f 36/108/21 40/75/21 34/106/21
f 38/110/21 40/75/21 36/108/21
f 2/74/21 40/75/21 38/110/21
f 41/187/40 79/188/40 43/189/40
f 43/189/40 79/188/40 45/193/40
f 45/193/40 79/188/40 47/195/40
f 47/195/40 79/188/40 49/197/40
f 49/197/40 79/188/40 51/199/40
f 51/199/40 79/188/40 53/201/40
f 53/201/40 79/188/40 55/203/40
f 55/203/40 79/188/40 57/205/40
f 57/205/40 79/188/40 59/207/40
f 59/207/40 79/188/40 61/209/40
f 61/209/40 79/188/40 63/211/40
f 63/211/40 79/188/40 65/213/40
f 65/213/40 79/188/40 67/215/40
f 67/215/40 79/188/40 69/217/40
f 69/217/40 79/188/40 71/219/40
f 71/219/40 79/188/40 73/221/40
f 73/221/40 79/188/40 75/223/40
f 75/223/40 79/188/40 77/225/40
f 77/225/40 79/188/40 41/187/40
f 44/192/1 80/191/1 42/190/1
f 46/194/1 80/191/1 44/192/1
f 48/196/1 80/191/1 46/194/1
f 50/198/1 80/191/1 48/196/1
f 52/200/1 80/191/1 50/198/1
f 54/202/1 80/191/1 52/200/1
f 56/204/1 80/191/1 54/202/1
f 58/206/1 80/191/1 56/204/1
f 60/208/1 80/191/1 58/206/1
f 62/210/1 80/191/1 60/208/1
f 64/212/1 80/191/1 62/210/1
f 66/214/1 80/191/1 64/212/1
f 68/216/1 80/191/1 66/214/1
f 70/218/1 80/191/1 68/216/1
f 72/220/1 80/191/1 70/218/1
f 74/222/1 80/191/1 72/220/1
f 76/224/1 80/191/1 74/222/1
f 78/226/1 80/191/1 76/224/1
f 42/190/1 80/191/1 78/226/1
f 81/303/60 119/304/60 83/305/60
f 83/309/60 119/310/60 85/311/60
f 85/315/60 119/316/60 87/317/60
f 87/320/60 119/321/60 89/322/60
f 89/326/60 119/327/60 91/328/60
f 91/332/60 119/333/60 93/334/60
f 93/338/60 119/339/60 95/340/60
f 95/344/60 119/345/60 97/346/60
f 97/350/60 119/351/60 99/352/60
f 99/356/60 119/357/60 101/358/60
f 101/362/60 119/363/60 103/364/60
f 103/368/60 119/369/60 105/370/60
f 105/374/60 119/375/60 107/376/60
f 107/379/60 119/380/60 109/381/60
f 109/385/60 119/386/60 111/387/60
f 111/391/60 119/392/60 113/393/60
f 113/397/60 119/327/60 115/398/60
f 115/401/60 119/402/60 117/403/60
f 117/407/60 119/408/60 81/409/60
f 84/308/61 120/307/61 82/306/61
f 86/314/61 120/313/61 84/312/61
f 88/317/61 120/319/61 86/318/61
f 90/325/61 120/324/61 88/323/61
f 92/331/61 120/330/61 90/329/61
f 94/337/61 120/336/61 92/335/61
f 96/343/61 120/342/61 94/341/61
f 98/349/61 120/348/61 96/347/61
f 100/355/61 120/354/61 98/353/61
f 102/361/61 120/360/61 100/359/61
f 104/367/61 120/366/61 102/365/61
f 106/373/61 120/372/61 104/371/61
f 108/378/61 120/262/61 106/377/61
f 110/384/61 120/383/61 108/382/61
f 112/390/61 120/389/61 110/388/61
f 114/396/61 120/395/61 112/394/61
f 116/400/61 120/330/61 114/399/61
f 118/406/61 120/405/61 116/404/61
f 82/412/61 120/411/61 118/410/61
f 4/4/2 2/2/1 1/1/1
f 1/1/1 3/3/2 4/4/2
f 6/8/3 4/6/2 3/5/2
f 3/5/2 5/7/3 6/8/3
f 8/12/4 6/10/3 5/9/3
f 5/9/3 7/11/4 8/12/4
f 10/16/5 8/14/4 7/13/4
f 7/13/4 9/15/5 10/16/5
f 12/20/6 10/18/5 9/17/5
f 9/17/5 11/19/6 12/20/6
f 14/24/7 12/22/6 11/21/6
f 11/21/6 13/23/7 14/24/7
f 16/28/8 14/26/7 13/25/7
f 13/25/7 15/27/8 16/28/8
f 18/32/9 16/30/8 15/29/8
f 15/29/8 17/31/9 18/32/9
f 20/36/10 18/34/9 17/33/9
f 17/33/9 19/35/10 20/36/10
f 22/38/11 20/34/10 19/33/10
f 19/33/10 21/37/11 22/38/11
f 24/42/12 22/40/11 21/39/11
f 21/39/11 23/41/12 24/42/12
f 26/46/13 24/44/12 23/43/12
f 23/43/12 25/45/13 26/46/13
f 28/48/14 26/42/13 25/41/13
f 25/41/13 27/47/14 28/48/14
f 30/50/15 28/28/14 27/27/14
f 27/27/14 29/49/15 30/50/15
f 32/54/16 30/52/15 29/51/15
f 29/51/15 31/53/16 32/54/16
f 34/58/17 32/56/16 31/55/16
f 31/55/16 33/57/17 34/58/17
f 36/62/18 34/60/17 33/59/17
f 33/59/17 35/61/18 36/62/18
f 38/66/19 36/64/18 35/63/18
f 35/63/18 37/65/19 38/66/19
f 2/70/1 38/68/19 37/67/19
f 37/67/19 1/69/1 2/70/1
f 44/114/22 42/112/20 41/111/20
f 41/111/20 43/113/22 44/114/22
f 46/118/23 44/116/22 43/115/22
f 43/115/22 45/117/23 46/118/23
f 48/122/24 46/120/23 45/119/23
f 45/119/23 47/121/24 48/122/24
f 50/126/25 48/124/24 47/123/24
f 47/123/24 49/125/25 50/126/25
f 52/130/26 50/128/25 49/127/25
f 49/127/25 51/129/26 52/130/26
f 54/134/27 52/132/26 51/131/26
f 51/131/26 53/133/27 54/134/27
f 56/138/28 54/136/27 53/135/27
f 53/135/27 55/137/28 56/138/28
f 58/142/29 56/140/28 55/139/28
f 55/139/28 57/141/29 58/142/29
f 60/146/30 58/144/29 57/143/29
f 57/143/29 59/145/30 60/146/30
f 62/150/31 60/148/30 59/147/30
f 59/147/30 61/149/31 62/150/31
f 64/154/32 62/152/31 61/151/31
f 61/151/31 63/153/32 64/154/32
f 66/158/33 64/156/32 63/155/32
f 63/155/32 65/157/33 66/158/33
f 68/162/34 66/160/33 65/159/33
f 65/159/33 67/161/34 68/162/34
f 70/166/35 68/164/34 67/163/34
f 67/163/34 69/165/35 70/166/35
f 72/170/36 70/168/35 69/167/35
f 69/167/35 71/169/36 72/170/36
f 74/174/37 72/172/36 71/171/36
f 71/171/36 73/173/37 74/174/37
f 76/178/38 74/176/37 73/175/37
f 73/175/37 75/177/38 76/178/38
f 78/182/39 76/180/38 75/179/38
f 75/179/38 77/181/39 78/182/39
f 42/186/20 78/184/39 77/183/39
f 77/183/39 41/185/20 42/186/20
f 84/230/42 82/228/41 81/227/41
f 81/227/41 83/229/42 84/230/42
f 86/234/43 84/232/42 83/231/42
f 83/231/42 85/233/43 86/234/43
f 88/238/44 86/236/43 85/235/43
f 85/235/43 87/237/44 88/238/44
f 90/242/45 88/240/44 87/239/44
f 87/239/44 89/241/45 90/242/45
f 92/246/46 90/244/45 89/243/45
f 89/243/45 91/245/46 92/246/46
f 94/250/47 92/248/46 91/247/46
f 91/247/46 93/249/47 94/250/47
f 96/254/48 94/252/47 93/251/47
f 93/251/47 95/253/48 96/254/48
f 98/258/49 96/256/48 95/255/48
f 95/255/48 97/257/49 98/258/49
f 100/262/50 98/260/49 97/259/49
f 97/259/49 99/261/50 100/262/50
f 102/266/51 100/264/50 99/263/50
f 99/263/50 101/265/51 102/266/51
f 104/270/52 102/268/51 101/267/51
f 101/267/51 103/269/52 104/270/52
f 106/274/53 104/272/52 103/271/52
f 103/271/52 105/273/53 106/274/53
f 108/278/54 106/276/53 105/275/53
f 105/275/53 107/277/54 108/278/54
f 110/282/55 108/280/54 107/279/54
f 107/279/54 109/281/55 110/282/55
f 112/286/56 110/284/55 109/283/55
f 109/283/55 111/285/56 112/286/56
f 114/290/57 112/288/56 111/287/56
f 111/287/56 113/289/57 114/290/57
f 116/294/58 114/292/57 113/291/57
f 113/291/57 115/293/58 116/294/58
f 118/298/59 116/296/58 115/295/58
f 115/295/58 117/297/59 118/298/59
f 82/302/41 118/300/59 117/299/59
f 117/299/59 81/301/41 82/302/41

