# ProBuilder 5.0.6
# https://unity3d.com/unity/features/worldbuilding/probuilder
# 10/6/2022 2:13:48 PM

mtllib ./Cube_(1).mtl
o Cube (1)

g Cube (1)
v 0.1041133 -0.005855173 0.01151991
v -0.1041133 -0.005855173 0.01151991
v 0.1041133 0.005855173 0.01151991
v -0.1041133 0.005855173 0.01151991
v -0.1041133 -0.005855173 -0.01151991
v -0.1041133 0.005855173 -0.01151991
v 0.1041133 -0.005855173 -0.01151991
v 0.1041133 0.005855173 -0.01151991
v -0.08686113 -0.2675426 -0.01322007
v -0.08686113 -0.3675425 -0.01322007
v -0.1068616 -0.2675426 -0.01322007
v -0.1068616 -0.3675425 -0.01322007
v -0.1068616 -0.2707198 0.01588035
v -0.08686113 -0.2707198 0.01588035
v -0.1068616 -0.3673122 -0.01000157
v -0.08686113 -0.3673122 -0.01000157
v -0.1068616 -0.2800348 0.0429976
v -0.08686113 -0.2800348 0.0429976
v -0.1068616 -0.3666372 -0.007002383
v -0.08686113 -0.3666372 -0.007002383
v -0.1068616 -0.2948527 0.0662837
v -0.08686113 -0.2948527 0.0662837
v -0.1068616 -0.3655634 -0.004426956
v -0.08686113 -0.3655634 -0.004426956
v -0.1068616 -0.3141639 0.0841518
v -0.08686113 -0.3141639 0.0841518
v -0.1068616 -0.3641639 -0.002450734
v -0.08686113 -0.3641639 -0.002450734
v -0.1068616 -0.3366523 0.09538412
v -0.08686113 -0.3366523 0.09538412
v -0.1068616 -0.362534 -0.001208454
v -0.08686113 -0.362534 -0.001208454
v -0.1068616 -0.3607852 0.09921527
v -0.08686113 -0.3607852 0.09921527
v -0.1068616 -0.3607852 -0.000784725
v -0.08686113 -0.3607852 -0.000784725
v -0.1068616 -0.3849182 0.09538412
v -0.08686113 -0.3849182 0.09538412
v -0.1068616 -0.3590364 -0.001208454
v -0.08686113 -0.3590364 -0.001208454
v -0.1068616 -0.4074066 0.0841518
v -0.08686113 -0.4074066 0.0841518
v -0.1068616 -0.3574066 -0.002450734
v -0.08686113 -0.3574066 -0.002450734
v -0.1068616 -0.4267178 0.0662837
v -0.08686113 -0.4267178 0.0662837
v -0.1068616 -0.3560071 -0.004426956
v -0.08686113 -0.3560071 -0.004426956
v -0.1068616 -0.4415357 0.0429976
v -0.08686113 -0.4415357 0.0429976
v -0.1068616 -0.3549333 -0.007002383
v -0.08686113 -0.3549333 -0.007002383
v -0.1068616 -0.4508507 0.01588035
v -0.08686113 -0.4508507 0.01588035
v -0.1068616 -0.3542583 -0.01000154
v -0.08686113 -0.3542583 -0.01000154
v -0.1068616 -0.4540279 -0.01322007
v -0.08686113 -0.4540279 -0.01322007
v -0.1068616 -0.354028 -0.01322007
v -0.08686113 -0.354028 -0.01322007
v 0.1041136 -0.4505551 0.01151991
v -0.1041136 -0.4505551 0.01151991
v 0.1041136 -0.4388449 0.01151991
v -0.1041136 -0.4388449 0.01151991
v -0.1041136 -0.4505551 -0.01151991
v -0.1041136 -0.4388449 -0.01151991
v 0.1041136 -0.4505551 -0.01151991
v 0.1041136 -0.4388449 -0.01151991
v -0.09403849 -0.291229 0.05331004
v -0.09403849 -0.2862289 0.05331004
v -0.1040382 -0.291229 0.05331004
v -0.1040382 -0.2862289 0.05331004
v -0.1040382 -0.2888782 0.03875989
v -0.09403849 -0.2888782 0.03875989
v -0.1040382 -0.2840486 0.04005396
v -0.09403849 -0.2840486 0.04005396
v -0.1040382 -0.2819865 0.0252012
v -0.09403849 -0.2819865 0.0252012
v -0.1040382 -0.2776563 0.02770126
v -0.09403849 -0.2776563 0.02770126
v -0.1040382 -0.271023 0.01355818
v -0.09403849 -0.271023 0.01355818
v -0.1040382 -0.2674875 0.01709372
v -0.09403849 -0.2674875 0.01709372
v -0.1040382 -0.2567353 0.004624128
v -0.09403849 -0.2567353 0.004624128
v -0.1040382 -0.2542355 0.008954257
v -0.09403849 -0.2542355 0.008954257
v -0.1040382 -0.240097 -0.0009920299
v -0.09403849 -0.240097 -0.0009920299
v -0.1040382 -0.2388029 0.003837585
v -0.09403849 -0.2388029 0.003837585
v -0.1040382 -0.2222419 -0.002907604
v -0.09403849 -0.2222419 -0.002907604
v -0.1040382 -0.2222419 0.002092391
v -0.09403849 -0.2222419 0.002092391
v -0.1040382 -0.2043867 -0.0009920299
v -0.09403849 -0.2043867 -0.0009920299
v -0.1040382 -0.2056808 0.003837585
v -0.09403849 -0.2056808 0.003837585
v -0.1040382 -0.1877484 0.004624128
v -0.09403849 -0.1877484 0.004624128
v -0.1040382 -0.1902483 0.008954257
v -0.09403849 -0.1902483 0.008954257
v -0.1040382 -0.1734607 0.01355818
v -0.09403849 -0.1734607 0.01355818
v -0.1040382 -0.1769962 0.01709372
v -0.09403849 -0.1769962 0.01709372
v -0.1040382 -0.1624973 0.0252012
v -0.09403849 -0.1624973 0.0252012
v -0.1040382 -0.1668274 0.0277012
v -0.09403849 -0.1668274 0.0277012
v -0.1040382 -0.1556056 0.03875983
v -0.09403849 -0.1556056 0.03875983
v -0.1040382 -0.1604352 0.04005396
v -0.09403849 -0.1604352 0.04005396
v -0.1040382 -0.1532547 0.0533101
v -0.09403849 -0.1532547 0.0533101
v -0.1040382 -0.1582549 0.0533101
v -0.09403849 -0.1582549 0.0533101
v -0.08686113 0.009057522 -0.01322007
v -0.08686113 -0.09094238 -0.01322007
v -0.1068616 0.009057522 -0.01322007
v -0.1068616 -0.09094238 -0.01322007
v -0.1068616 0.005880356 0.01588035
v -0.08686113 0.005880356 0.01588035
v -0.1068616 -0.09071207 -0.01000157
v -0.08686113 -0.09071207 -0.01000157
v -0.1068616 -0.003434658 0.0429976
v -0.08686113 -0.003434658 0.0429976
v -0.1068616 -0.09003711 -0.007002383
v -0.08686113 -0.09003711 -0.007002383
v -0.1068616 -0.01825261 0.0662837
v -0.08686113 -0.01825261 0.0662837
v -0.1068616 -0.08896327 -0.004426956
v -0.08686113 -0.08896327 -0.004426956
v -0.1068616 -0.0375638 0.0841518
v -0.08686113 -0.0375638 0.0841518
v -0.1068616 -0.08756375 -0.002450734
v -0.08686113 -0.08756375 -0.002450734
v -0.1068616 -0.06005216 0.09538412
v -0.08686113 -0.06005216 0.09538412
v -0.1068616 -0.08593392 -0.001208454
v -0.08686113 -0.08593392 -0.001208454
v -0.1068616 -0.08418512 0.09921527
v -0.08686113 -0.08418512 0.09921527
v -0.1068616 -0.08418512 -0.000784725
v -0.08686113 -0.08418512 -0.000784725
v -0.1068616 -0.1083181 0.09538412
v -0.08686113 -0.1083181 0.09538412
v -0.1068616 -0.08243632 -0.001208454
v -0.08686113 -0.08243632 -0.001208454
v -0.1068616 -0.1308064 0.0841518
v -0.08686113 -0.1308064 0.0841518
v -0.1068616 -0.08080649 -0.002450734
v -0.08686113 -0.08080649 -0.002450734
v -0.1068616 -0.1501176 0.0662837
v -0.08686113 -0.1501176 0.0662837
v -0.1068616 -0.07940698 -0.004426956
v -0.08686113 -0.07940698 -0.004426956
v -0.1068616 -0.1649356 0.0429976
v -0.08686113 -0.1649356 0.0429976
v -0.1068616 -0.07833314 -0.007002383
v -0.08686113 -0.07833314 -0.007002383
v -0.1068616 -0.1742506 0.01588035
v -0.08686113 -0.1742506 0.01588035
v -0.1068616 -0.07765818 -0.01000154
v -0.08686113 -0.07765818 -0.01000154
v -0.1068616 -0.1774278 -0.01322007
v -0.08686113 -0.1774278 -0.01322007
v -0.1068616 -0.07742786 -0.01322007
v -0.08686113 -0.07742786 -0.01322007

vt 0.1041133 -0.005855173
vt -0.1041133 -0.005855173
vt 0.1041133 0.005855173
vt -0.1041133 0.005855173
vt 0.01151991 -0.005855173
vt -0.01151991 -0.005855173
vt 0.01151991 0.005855173
vt -0.01151991 0.005855173
vt -0.1041133 0.01151991
vt 0.1041133 0.01151991
vt -0.1041133 -0.01151991
vt 0.1041133 -0.01151991
vt 0.06085761 -0.094877
vt -0.03914241 -0.094877
vt 0.06085761 -0.114877
vt -0.03914241 -0.114877
vt 0.114877 -0.06726475
vt 0.114877 -0.03799142
vt 0.094877 -0.06726475
vt 0.094877 -0.03799142
vt -0.114877 -0.06043087
vt -0.114877 -0.06365758
vt -0.094877 -0.06043087
vt -0.094877 -0.06365758
vt 0.114877 -0.04892717
vt 0.114877 -0.02025463
vt 0.094877 -0.04892717
vt 0.094877 -0.02025463
vt -0.114877 -0.06186122
vt -0.114877 -0.06493542
vt -0.094877 -0.06186122
vt -0.094877 -0.06493542
vt 0.114877 -0.0300173
vt 0.114877 -0.002416283
vt 0.094877 -0.0300173
vt 0.094877 -0.002416283
vt -0.114877 -0.06250662
vt -0.114877 -0.06529698
vt -0.094877 -0.06250662
vt -0.094877 -0.06529698
vt -0.01207062 -0.114877
vt 0.0142389 -0.114877
vt -0.01207062 -0.094877
vt 0.0142389 -0.094877
vt -0.114877 -0.06409945
vt -0.094877 -0.06409945
vt 0.003507361 -0.114877
vt 0.02864479 -0.114877
vt 0.003507361 -0.094877
vt 0.02864479 -0.094877
vt 0.05685674 -0.114877
vt 0.05890597 -0.114877
vt 0.05685674 -0.094877
vt 0.05890597 -0.094877
vt 0.01561069 -0.114877
vt 0.04004588 -0.114877
vt 0.01561069 -0.094877
vt 0.04004588 -0.094877
vt 0.0429146 -0.114877
vt 0.04471412 -0.114877
vt 0.0429146 -0.094877
vt 0.04471412 -0.094877
vt 0.02392328 -0.114877
vt 0.04835847 -0.114877
vt 0.02392328 -0.094877
vt 0.04835847 -0.094877
vt 0.01823491 -0.114877
vt 0.02003443 -0.114877
vt 0.01823491 -0.094877
vt 0.02003443 -0.094877
vt 0.02929963 -0.114877
vt 0.05443712 -0.114877
vt 0.02929963 -0.094877
vt 0.05443712 -0.094877
vt -0.007394813 -0.114877
vt -0.005345576 -0.114877
vt -0.007394813 -0.094877
vt -0.005345576 -0.094877
vt 0.03330252 -0.114877
vt 0.05961204 -0.114877
vt 0.03330252 -0.094877
vt 0.05961204 -0.094877
vt 0.114877 -0.02666706
vt 0.114877 -0.02424552
vt 0.094877 -0.02666706
vt 0.094877 -0.02424552
vt -0.114877 -0.03718914
vt -0.094877 -0.03718914
vt 0.114877 -0.04037035
vt 0.094877 -0.04037035
vt -0.114877 -0.04129684
vt -0.114877 -0.06996939
vt -0.094877 -0.04129684
vt -0.094877 -0.06996939
vt 0.114877 -0.05071267
vt 0.114877 -0.04763847
vt 0.094877 -0.05071267
vt 0.094877 -0.04763847
vt -0.114877 -0.04502117
vt -0.114877 -0.07429452
vt -0.094877 -0.04502117
vt -0.094877 -0.07429452
vt 0.114877 -0.0590358
vt 0.114877 -0.05580907
vt 0.094877 -0.0590358
vt 0.094877 -0.05580907
vt -0.02562784 -0.094877
vt -0.1256278 -0.094877
vt -0.02562784 -0.114877
vt -0.1256278 -0.114877
vt 0.0608579 -0.06101912
vt 0.05768016 -0.0319187
vt -0.03914212 -0.06102109
vt -0.03891188 -0.05780256
vt -0.05768016 -0.0319187
vt -0.06085789 -0.06101912
vt 0.03891188 -0.05780256
vt 0.03914213 -0.06102109
vt 0.04836589 -0.004802257
vt -0.03823753 -0.05480209
vt -0.04836589 -0.004802257
vt 0.0382375 -0.05480209
vt 0.03354758 0.01848376
vt -0.0371633 -0.0522269
vt -0.03354758 0.01848376
vt 0.0371633 -0.0522269
vt -0.01423599 0.03635171
vt 0.03576365 -0.05025083
vt 0.008253716 0.04758376
vt 0.03413368 -0.04900882
vt -0.008253723 0.04758376
vt 0.01423643 0.03635234
vt -0.03413367 -0.04900882
vt -0.03576355 -0.05025113
vt 0.03238364 0.0514155
vt 0.03238535 -0.04858452
vt -0.03238364 0.0514155
vt -0.03238535 -0.04858452
vt 0.05651809 0.04758394
vt 0.03063615 -0.04900822
vt -0.05651808 0.04758394
vt -0.03063616 -0.04900825
vt 0.07900667 0.03635234
vt 0.02900666 -0.05025113
vt -0.07900669 0.03635234
vt -0.02900665 -0.05025116
vt -0.09831774 0.01848388
vt -0.02760706 -0.05222705
vt -0.1131356 -0.004802555
vt -0.02653307 -0.05480236
vt 0.1131356 -0.004802555
vt 0.0983178 0.01848376
vt 0.02653307 -0.05480236
vt 0.02760692 -0.0522269
vt -0.1224503 -0.03192109
vt -0.02585768 -0.05780143
vt 0.1224503 -0.03192106
vt 0.02585769 -0.05780143
vt -0.1256281 -0.06101915
vt -0.02562809 -0.06102106
vt 0.1256281 -0.06101915
vt 0.02562809 -0.06102106
vt 0.05085763 -0.094877
vt 0.05085763 -0.114877
vt 0.114877 -0.06994508
vt 0.094877 -0.06994508
vt -0.114877 -0.04159662
vt -0.114877 -0.06846502
vt -0.094877 -0.04159662
vt -0.094877 -0.06846502
vt 0.114877 -0.05390033
vt 0.114877 -0.02348104
vt 0.094877 -0.05390033
vt 0.094877 -0.02348104
vt -0.114877 -0.02419975
vt -0.114877 -0.05201712
vt -0.094877 -0.02419975
vt -0.094877 -0.05201712
vt 0.114877 -0.03254426
vt 0.114877 -0.0005595684
vt 0.094877 -0.03254426
vt 0.094877 -0.0005595684
vt -0.114877 -0.001017064
vt -0.114877 -0.03040573
vt -0.094877 -0.001017064
vt -0.094877 -0.03040573
vt -0.007536113 -0.114877
vt 0.02616578 -0.114877
vt -0.007536113 -0.094877
vt 0.02616578 -0.094877
vt 0.005423844 -0.114877
vt 0.005423844 -0.094877
vt 0.01932833 -0.114877
vt 0.01932833 -0.094877
vt -0.05369414 -0.114877
vt -0.02117701 -0.114877
vt -0.05369414 -0.094877
vt -0.02117701 -0.094877
vt 0.04624578 -0.114877
vt 0.08216104 -0.114877
vt 0.04624578 -0.094877
vt 0.08216104 -0.094877
vt -0.08103213 -0.114877
vt -0.04772654 -0.114877
vt -0.08103213 -0.094877
vt -0.04772654 -0.094877
vt 0.07119193 -0.114877
vt 0.1071072 -0.114877
vt 0.07119193 -0.094877
vt 0.1071072 -0.094877
vt -0.105657 -0.114877
vt -0.07235157 -0.114877
vt -0.105657 -0.094877
vt -0.07235157 -0.094877
vt 0.09168303 -0.114877
vt 0.1268043 -0.114877
vt 0.09168303 -0.094877
vt 0.1268043 -0.094877
vt -0.1252193 -0.114877
vt -0.09270212 -0.114877
vt -0.1252193 -0.094877
vt -0.09270212 -0.094877
vt 0.1046061 -0.114877
vt 0.138308 -0.114877
vt 0.1046061 -0.09487697
vt 0.138308 -0.094877
vt -0.1368473 -0.114877
vt -0.1368473 -0.094877
vt -0.114877 -0.1062918
vt -0.114877 -0.1382765
vt -0.094877 -0.1062918
vt -0.094877 -0.1382765
vt 0.114877 -0.1371378
vt 0.114877 -0.1077492
vt 0.094877 -0.1371378
vt 0.094877 -0.1077492
vt -0.114877 -0.09336741
vt -0.114877 -0.1237867
vt -0.094877 -0.09336741
vt -0.094877 -0.1237867
vt 0.114877 -0.1229015
vt 0.114877 -0.09508412
vt 0.094877 -0.1229015
vt 0.094877 -0.09508412
vt -0.114877 -0.0945435
vt -0.094877 -0.0945435
vt 0.114877 -0.09349628
vt 0.114877 -0.06662783
vt 0.094877 -0.09349628
vt 0.094877 -0.06662783
vt -0.2050906 -0.094877
vt -0.2150906 -0.094877
vt -0.2050906 -0.114877
vt -0.2150906 -0.114877
vt 0.05615614 -0.03191966
vt 0.05085757 -0.06102008
vt 0.04649702 -0.03450781
vt -0.05615614 -0.03191966
vt -0.04649702 -0.03450781
vt -0.05085757 -0.06102008
vt 0.04237266 -0.004802406
vt 0.03371236 -0.00980252
vt -0.04237266 -0.004802406
vt -0.03371236 -0.00980252
vt 0.02044589 0.0184837
vt 0.01337486 0.01141268
vt -0.02044589 0.0184837
vt -0.01337486 0.01141268
vt -0.008129826 0.0363518
vt -0.01312942 0.02769148
vt 0.00812983 0.0363518
vt 0.01312942 0.02769148
vt -0.04140605 0.04758412
vt -0.04399434 0.03792492
vt 0.04140605 0.04758412
vt 0.04399434 0.03792492
vt -0.0771165 0.05141523
vt -0.0771165 0.04141524
vt 0.0771165 0.05141523
vt 0.0771165 0.04141524
vt -0.1128268 0.04758412
vt -0.1102386 0.03792489
vt 0.1128268 0.04758412
vt 0.1102386 0.03792489
vt -0.1461036 0.03635177
vt -0.1411039 0.02769154
vt 0.1461036 0.03635177
vt 0.1411039 0.02769154
vt -0.174679 0.01848376
vt -0.1676079 0.01141262
vt 0.1746789 0.01848379
vt 0.1676079 0.01141262
vt -0.1966056 -0.004802436
vt -0.1879452 -0.009802401
vt 0.1966056 -0.004802436
vt 0.1879452 -0.009802401
vt -0.2103893 -0.03191948
vt -0.20073 -0.03450784
vt 0.2103893 -0.03191948
vt 0.20073 -0.03450784
vt -0.2150906 -0.06102011
vt -0.2050905 -0.06102008
vt 0.2150906 -0.06102011
vt 0.2050906 -0.06102008

vn 0 0 1
vn -1 0 0
vn 0 0 -1
vn 1 0 0
vn 0 1 0
vn 0 -1 0
vn 0 0.9940927 0.1085344
vn 0 0.9759379 0.2180486
vn 0 -0.9893028 0.1458765
vn 0 -0.9974495 0.07137635
vn 0 0.9009695 0.4338824
vn 0 -0.9528815 0.3033428
vn 0 0.767763 0.6407339
vn 0 -0.8748767 0.4843457
vn 0 0.5686917 0.8225507
vn 0 -0.7193998 0.6945962
vn 0 0.3053745 0.9522323
vn 0 -0.4300015 0.9028282
vn 0 -0.3053745 0.9522323
vn 0 0.4300015 0.9028282
vn 0 -0.5686917 0.8225507
vn 0 0.7193998 0.6945962
vn 0 -0.767763 0.6407339
vn 0 0.8748767 0.4843457
vn 0 -0.9009695 0.4338824
vn 0 0.9528812 0.3033438
vn 0 -0.9759379 0.2180486
vn 0 0.9755992 0.2195595
vn 0 -0.9940927 0.1085344
vn 0 0.9974495 0.0713757
vn 0 0 0
vn 0 -0.9871984 -0.1594975
vn 0 -0.9507285 -0.3100248
vn 0 0.9491489 0.3148276
vn 0 0.9867418 0.1622977
vn 0 -0.8180401 -0.5751612
vn 0 0.8133509 0.5817735
vn 0 -0.6343222 -0.7730688
vn 0 0.6277474 0.7784171
vn 0 -0.4279054 -0.9038236
vn 0 0.4218382 0.9066712
vn 0 -0.214525 -0.9767185
vn 0 0.210971 0.9774923
vn 0 0.214525 -0.9767185
vn 0 -0.210971 0.9774923
vn 0 0.4279054 -0.9038236
vn 0 -0.4218382 0.9066712
vn 0 0.6343222 -0.7730688
vn 0 -0.6277463 0.778418
vn 0 0.8180396 -0.5751619
vn 0 -0.8133507 0.5817738
vn 0 0.9507284 -0.310025
vn 0 -0.8881332 0.4595863
vn 0 0.9871985 -0.1594962
vn 0 -0.986742 0.162297

usemtl ProBuilderDefault
f 3/3/1 4/4/1 2/2/1 1/1/1
f 4/7/2 6/8/2 5/6/2 2/5/2
f 6/3/3 8/4/3 7/2/3 5/1/3
f 8/7/4 3/8/4 1/6/4 7/5/4
f 8/11/5 6/12/5 4/10/5 3/9/5
f 1/10/6 2/9/6 5/11/6 7/12/6
f 9/13/3 10/14/3 12/16/3 11/15/3
f 11/17/7 13/18/8 14/20/8 9/19/7
f 15/21/9 12/22/10 10/24/10 16/23/9
f 13/25/8 17/26/11 18/28/11 14/27/8
f 19/29/12 15/30/9 16/32/9 20/31/12
f 17/33/11 21/34/13 22/36/13 18/35/11
f 23/37/14 19/38/12 20/40/12 24/39/14
f 21/41/13 25/42/15 26/44/15 22/43/13
f 27/29/16 23/45/14 24/46/14 28/31/16
f 25/47/15 29/48/17 30/50/17 26/49/15
f 31/51/18 27/52/16 28/54/16 32/53/18
f 29/55/17 33/56/1 34/58/1 30/57/17
f 35/59/1 31/60/18 32/62/18 36/61/1
f 33/63/1 37/64/19 38/66/19 34/65/1
f 39/67/20 35/68/1 36/70/1 40/69/20
f 37/71/19 41/72/21 42/74/21 38/73/19
f 43/75/22 39/76/20 40/78/20 44/77/22
f 41/79/21 45/80/23 46/82/23 42/81/21
f 47/83/24 43/84/22 44/86/22 48/85/24
f 45/87/23 49/30/25 50/32/25 46/88/23
f 51/89/26 47/18/24 48/20/24 52/90/26
f 49/91/25 53/92/27 54/94/27 50/93/25
f 55/95/28 51/96/26 52/98/26 56/97/28
f 53/99/27 57/100/29 58/102/29 54/101/27
f 59/103/30 55/104/30 56/106/30 60/105/30
f 60/107/3 58/108/3 57/110/3 59/109/3
f 9/111/4 14/112/4 16/114/4 10/113/4
f 13/115/2 11/116/2 12/118/2 15/117/2
f 14/112/4 18/119/4 20/120/4 16/114/4
f 17/121/2 13/115/2 15/117/2 19/122/2
f 18/119/4 22/123/4 24/124/4 20/120/4
f 21/125/2 17/121/2 19/122/2 23/126/2
f 22/125/4 26/127/31 28/128/2 24/126/31
f 25/127/2 21/125/2 23/126/2 27/128/2
f 26/127/4 30/129/31 32/130/2 28/128/31
f 29/131/2 25/132/31 27/134/4 31/133/31
f 30/129/4 34/135/31 36/136/2 32/130/31
f 33/137/2 29/131/31 31/133/4 35/138/31
f 34/135/4 38/139/31 40/140/2 36/136/31
f 37/141/2 33/137/31 35/138/4 39/142/31
f 38/139/4 42/143/31 44/144/2 40/140/31
f 41/145/2 37/141/31 39/142/4 43/146/31
f 42/145/4 46/147/4 48/148/4 44/146/4
f 45/147/2 41/145/31 43/146/4 47/148/31
f 46/147/4 50/149/4 52/150/4 48/148/4
f 49/151/2 45/152/2 47/154/2 51/153/2
f 50/149/4 54/155/4 56/156/4 52/150/4
f 53/157/2 49/151/2 51/153/2 55/158/2
f 54/155/4 58/159/4 60/160/4 56/156/4
f 57/161/2 53/157/2 55/158/2 59/162/2
f 63/3/1 64/4/1 62/2/1 61/1/1
f 64/7/2 66/8/2 65/6/2 62/5/2
f 66/3/3 68/4/3 67/2/3 65/1/3
f 68/7/4 63/8/4 61/6/4 67/5/4
f 68/11/5 66/12/5 64/10/5 63/9/5
f 61/10/6 62/9/6 65/11/6 67/12/6
f 69/13/1 70/163/1 72/164/1 71/15/1
f 71/165/32 73/89/33 74/90/33 69/166/32
f 75/167/34 72/168/35 70/170/35 76/169/34
f 73/171/33 77/172/36 78/174/36 74/173/33
f 79/175/37 75/176/34 76/178/34 80/177/37
f 77/179/36 81/180/38 82/182/38 78/181/36
f 83/183/39 79/184/37 80/186/37 84/185/39
f 81/187/38 85/188/40 86/190/40 82/189/38
f 87/109/41 83/191/39 84/192/39 88/107/41
f 85/193/40 89/72/42 90/74/42 86/194/40
f 91/195/43 87/196/41 88/198/41 92/197/43
f 89/199/42 93/200/3 94/202/3 90/201/42
f 95/203/1 91/204/43 92/206/43 96/205/1
f 93/207/3 97/208/44 98/210/44 94/209/3
f 99/211/45 95/212/1 96/214/1 100/213/45
f 97/215/44 101/216/46 102/218/46 98/217/44
f 103/219/47 99/220/45 100/222/45 104/221/47
f 101/223/46 105/224/48 106/226/48 102/225/46
f 107/227/49 103/211/47 104/213/47 108/228/49
f 105/229/48 109/230/50 110/232/50 106/231/48
f 111/233/51 107/234/49 108/236/49 112/235/51
f 109/237/50 113/238/52 114/240/52 110/239/50
f 115/241/53 111/242/51 112/244/51 116/243/53
f 113/38/52 117/245/54 118/246/54 114/40/52
f 119/247/55 115/248/55 116/250/55 120/249/55
f 120/251/1 118/252/1 117/254/1 119/253/1
f 69/111/4 74/255/4 76/257/4 70/256/4
f 73/258/2 71/116/2 72/260/2 75/259/2
f 74/255/4 78/261/4 80/262/4 76/257/4
f 77/263/2 73/258/2 75/259/2 79/264/2
f 78/261/4 82/265/4 84/266/4 80/262/4
f 81/267/2 77/263/2 79/264/2 83/268/2
f 82/265/4 86/269/4 88/270/4 84/266/4
f 85/271/2 81/267/2 83/268/2 87/272/2
f 86/269/4 90/273/4 92/274/4 88/270/4
f 89/275/2 85/271/2 87/272/2 91/276/2
f 90/273/4 94/277/4 96/278/4 92/274/4
f 93/279/2 89/275/2 91/276/2 95/280/2
f 94/277/4 98/281/4 100/282/4 96/278/4
f 97/283/2 93/279/2 95/280/2 99/284/2
f 98/281/4 102/285/4 104/286/4 100/282/4
f 101/287/2 97/283/2 99/284/2 103/288/2
f 102/285/4 106/289/4 108/290/4 104/286/4
f 105/291/2 101/287/2 103/288/2 107/292/2
f 106/289/4 110/293/4 112/294/4 108/290/4
f 109/295/2 105/291/2 107/292/2 111/296/2
f 110/293/4 114/297/4 116/298/4 112/294/4
f 113/299/2 109/295/2 111/296/2 115/300/2
f 114/297/4 118/301/4 120/302/4 116/298/4
f 117/303/2 113/299/2 115/300/2 119/304/2
f 121/13/3 122/14/3 124/16/3 123/15/3
f 123/17/7 125/18/8 126/20/8 121/19/7
f 127/21/9 124/22/10 122/24/10 128/23/9
f 125/25/8 129/26/11 130/28/11 126/27/8
f 131/29/12 127/30/9 128/32/9 132/31/12
f 129/33/11 133/34/13 134/36/13 130/35/11
f 135/37/14 131/38/12 132/40/12 136/39/14
f 133/41/13 137/42/15 138/44/15 134/43/13
f 139/29/16 135/45/14 136/46/14 140/31/16
f 137/47/15 141/48/17 142/50/17 138/49/15
f 143/51/18 139/52/16 140/54/16 144/53/18
f 141/55/17 145/56/1 146/58/1 142/57/17
f 147/59/1 143/60/18 144/62/18 148/61/1
f 145/63/1 149/64/19 150/66/19 146/65/1
f 151/67/20 147/68/1 148/70/1 152/69/20
f 149/71/19 153/72/21 154/74/21 150/73/19
f 155/75/22 151/76/20 152/78/20 156/77/22
f 153/79/21 157/80/23 158/82/23 154/81/21
f 159/83/24 155/84/22 156/86/22 160/85/24
f 157/87/23 161/30/25 162/32/25 158/88/23
f 163/89/26 159/18/24 160/20/24 164/90/26
f 161/91/25 165/92/27 166/94/27 162/93/25
f 167/95/28 163/96/26 164/98/26 168/97/28
f 165/99/27 169/100/29 170/102/29 166/101/27
f 171/103/30 167/104/30 168/106/30 172/105/30
f 172/107/3 170/108/3 169/110/3 171/109/3
f 121/111/4 126/112/4 128/114/4 122/113/4
f 125/115/2 123/116/2 124/118/2 127/117/2
f 126/112/4 130/119/4 132/120/4 128/114/4
f 129/121/2 125/115/2 127/117/2 131/122/2
f 130/119/4 134/123/4 136/124/4 132/120/4
f 133/125/2 129/121/2 131/122/2 135/126/2
f 134/125/4 138/127/31 140/128/2 136/126/31
f 137/127/2 133/125/2 135/126/2 139/128/2
f 138/127/4 142/129/31 144/130/2 140/128/31
f 141/131/2 137/132/31 139/134/4 143/133/31
f 142/129/4 146/135/31 148/136/2 144/130/31
f 145/137/2 141/131/31 143/133/4 147/138/31
f 146/135/4 150/139/31 152/140/2 148/136/31
f 149/141/2 145/137/31 147/138/4 151/142/31
f 150/139/4 154/143/31 156/144/2 152/140/31
f 153/145/2 149/141/31 151/142/4 155/146/31
f 154/145/4 158/147/4 160/148/4 156/146/4
f 157/147/2 153/145/31 155/146/4 159/148/31
f 158/147/4 162/149/4 164/150/4 160/148/4
f 161/151/2 157/152/2 159/154/2 163/153/2
f 162/149/4 166/155/4 168/156/4 164/150/4
f 165/157/2 161/151/2 163/153/2 167/158/2
f 166/155/4 170/159/4 172/160/4 168/156/4
f 169/161/2 165/157/2 167/158/2 171/162/2

